<svg xmlns="http://www.w3.org/2000/svg" xmlns:xlink="http://www.w3.org/1999/xlink" width="250" zoomAndPan="magnify" viewBox="0 0 187.5 187.499992" height="250" preserveAspectRatio="xMidYMid meet" version="1.0"><defs><g/><clipPath id="id1"><path d="M 0 0 L 187 0 L 187 187 L 0 187 Z M 0 0 " clip-rule="nonzero"/></clipPath></defs><g clip-path="url(#id1)"><path fill="#ffffff" d="M 0 0 L 187.5 0 L 187.5 195 L 0 195 Z M 0 0 " fill-opacity="1" fill-rule="nonzero"/><path fill="#041f30" d="M 0 0 L 187.5 0 L 187.5 187.5 L 0 187.5 Z M 0 0 " fill-opacity="1" fill-rule="nonzero"/><path fill="#ffffff" d="M 0 0 L 187.5 0 L 187.5 187.5 L 0 187.5 Z M 0 0 " fill-opacity="1" fill-rule="nonzero"/><path fill="#041f30" d="M 0 0 L 187.5 0 L 187.5 187.5 L 0 187.5 Z M 0 0 " fill-opacity="1" fill-rule="nonzero"/></g><g fill="#ac8b73" fill-opacity="1"><g transform="translate(12.679337, 160.039251)"><g><path d="M 77.273438 0 L 80.757812 -27.195312 L 35.15625 -27.195312 L 48.585938 -129.34375 L 17.078125 -129.34375 L 0.164062 0 Z M 77.273438 0 "/></g></g></g><g fill="#ac8b73" fill-opacity="1"><g transform="translate(67.398763, 160.039251)"><g><path d="M 38.140625 -67.65625 C 41.125 -90.042969 45.269531 -104.46875 61.023438 -104.46875 L 62.847656 -104.46875 C 75.285156 -104.46875 76.445312 -94.519531 74.457031 -79.597656 L 105.960938 -79.597656 L 106.792969 -86.0625 C 110.769531 -117.238281 95.347656 -131.664062 63.84375 -131.664062 C 29.019531 -131.664062 12.105469 -112.429688 6.136719 -67.65625 L 5.304688 -61.355469 C -0.664062 -16.582031 14.925781 2.320312 49.746094 2.320312 C 78.765625 2.320312 97.503906 -9.785156 101.152344 -43.28125 L 101.320312 -44.773438 L 69.8125 -44.773438 C 68.320312 -33.164062 63.511719 -24.875 52.402344 -24.875 L 50.578125 -24.875 C 35.652344 -24.875 34.324219 -38.804688 37.3125 -61.355469 Z M 38.140625 -67.65625 "/></g></g></g></svg>